#!OML:ASF H:\GeneralSubjects\Female5\Project 1\Capture day 1\Session 1\Female5.ASF
:FULLY-SPECIFIED
:DEGREES
133
root -28.3158 16.1627 -1.70124 -169.34 2.78221 -176.537
lowerback 8.54593 0.326789 3.74312
upperback -9.24021 1.58084 -0.323041
thorax -14.9904 0.547772 -2.86169
lowerneck -14.9828 -2.92577 0.314705
upperneck 32.6265 -1.28561 -2.01324
head 13.4787 0.121564 -0.833097
rclavicle -2.13694e-015 1.98785e-015
rhumerus -52.3391 20.4446 -86.7245
rradius 35.4212
rwrist -2.87683
rhand -26.3015 -15.7006
rfingers 7.12502
rthumb 0.254503 -45.6802
lclavicle -2.13694e-015 1.98785e-015
lhumerus -49.3576 -0.260688 70.9704
lradius 27.9668
lwrist -9.89605
lhand -20.5543 22.9016
lfingers 7.12502
lthumb 5.80471 52.802
rfemur -11.0143 16.6553 24.7723
rtibia 7.30967
rfoot -14.7953 -14.4589
rtoes -20.6471
lfemur -23.2852 -9.42928 -4.52829
ltibia 33.6018
lfoot -34.5555 3.18217
ltoes -30.3331
134
root -28.2031 16.1985 -1.67393 -169.362 2.72028 -176.928
lowerback 8.48737 0.348927 3.9238
upperback -9.28535 1.63126 -0.445988
thorax -14.9992 0.545381 -3.11165
lowerneck -14.7966 -2.79427 0.370687
upperneck 32.5768 -0.964315 -2.3396
head 13.4193 0.23563 -0.916974
rclavicle 0 1.74931e-014
rhumerus -52.4749 20.2082 -86.5344
rradius 35.3221
rwrist -2.9143
rhand -26.295 -15.5964
rfingers 7.12502
rthumb 0.260824 -45.576
lclavicle 0 1.74931e-014
lhumerus -49.1822 -0.438915 71.0486
lradius 27.9554
lwrist -10.0001
lhand -20.9762 24.8352
lfingers 7.12502
lthumb 5.39732 54.7465
rfemur -10.7505 16.8438 24.7724
rtibia 6.73192
rfoot -14.7267 -14.979
rtoes -21.3648
lfemur -24.5488 -8.62555 -7.62634
ltibia 35.7331
lfoot -31.4498 -0.384221
ltoes -40.0473
135
root -28.0977 16.2353 -1.65216 -169.431 2.69124 -177.221
lowerback 8.46654 0.398205 4.14612
upperback -9.34545 1.73587 -0.522546
thorax -15.0464 0.566512 -3.34627
lowerneck -14.6327 -2.72559 0.271248
upperneck 32.607 -0.725914 -2.5184
head 13.4022 0.319906 -0.928415
rclavicle 4.00054e-015 1.19271e-015
rhumerus -52.7571 20.1069 -86.5503
rradius 35.2717
rwrist -3.1471
rhand -26.2987 -15.7194
rfingers 7.12502
rthumb 0.25721 -45.699
lclavicle 4.00054e-015 1.19271e-015
lhumerus -49.1072 -0.919665 71.422
lradius 28.0034
lwrist -9.61954
lhand -20.0612 24.7833
lfingers 7.12502
lthumb 6.28076 54.6702
rfemur -10.3735 17.4181 24.8716
rtibia 6.17273
rfoot -14.9167 -15.7977
rtoes -21.9621
lfemur -25.4649 -8.00601 -10.6564
ltibia 37.3898
lfoot -27.7182 -4.42457
ltoes -33.8527
136
root -27.9983 16.2651 -1.63555 -169.476 2.70559 -177.309
lowerback 8.39247 0.469399 4.39964
upperback -9.39488 1.89086 -0.465725
thorax -15.0445 0.619962 -3.45705
lowerneck -14.5288 0.319474 -0.603111
upperneck 32.7289 -1.53973 -1.53178
head 13.4418 -1.94869 -0.97604
rclavicle 5.69021e-015 -6.55989e-015
rhumerus -52.7462 19.9796 -86.3942
rradius 34.8671
rwrist -3.01309
rhand -26.1524 -15.6572
rfingers 7.12502
rthumb 0.398554 -45.6366
lclavicle 5.69021e-015 -6.55989e-015
lhumerus -48.991 -0.941653 71.5635
lradius 28.0168
lwrist -9.61044
lhand -19.3352 22.742
lfingers 7.12502
lthumb 6.98161 52.6069
rfemur -9.91086 18.0483 25.186
rtibia 5.44959
rfoot -14.9569 -16.5241
rtoes -22.7589
lfemur -26.1618 -7.60542 -13.4357
ltibia 38.6096
lfoot -23.3989 -7.76129
ltoes -37.5525
137
root -27.9037 16.2854 -1.62552 -169.571 2.79478 -177.519
lowerback 8.33106 0.530177 4.47058
upperback -9.45096 1.99776 -0.45108
thorax -15.0635 0.66672 -3.50302
lowerneck -14.5148 0.447082 -0.715908
upperneck 32.8808 -1.30358 -1.6621
head 13.5058 -1.89125 -0.977592
rclavicle 1.2424e-015 -1.0138e-014
rhumerus -52.8856 20.0116 -86.4872
rradius 34.4675
rwrist -2.68597
rhand -26.0032 -15.3794
rfingers 7.12502
rthumb 0.542629 -45.3584
lclavicle 1.2424e-015 -1.0138e-014
lhumerus -48.9638 -0.811527 71.4166
lradius 28.0515
lwrist -9.88124
lhand -22.7199 24.3637
lfingers 7.12502
lthumb 3.71355 54.3111
rfemur -9.31006 18.3252 25.3881
rtibia 4.53973
rfoot -14.9244 -16.4831
rtoes -21.3028
lfemur -26.4803 -7.51707 -16.3837
ltibia 39.1659
lfoot -19.623 -9.14023
ltoes -41.9777
138
root -27.8117 16.2995 -1.62076 -169.792 2.90901 -177.803
lowerback 8.32477 0.549267 4.5444
upperback -9.49803 2.03098 -0.550007
thorax -15.1098 0.667065 -3.66433
lowerneck -14.4029 0.630737 -0.578209
upperneck 33.0743 -1.06588 -1.84428
head 13.5653 -1.8183 -1.04509
rclavicle 2.18663e-015 7.15625e-015
rhumerus -53.3015 20.5288 -87.2547
rradius 34.2879
rwrist -2.7659
rhand -25.8994 -15.6453
rfingers 7.12502
rthumb 0.642934 -45.6241
lclavicle 2.18663e-015 7.15625e-015
lhumerus -49.0455 -0.807784 71.1082
lradius 28.1315
lwrist -9.94621
lhand -19.504 22.2604
lfingers 7.12502
lthumb 6.8186 52.1306
rfemur -8.58215 18.494 25.5336
rtibia 3.68206
rfoot -14.8836 -16.3403
rtoes -19.434
lfemur -26.3169 -7.85583 -19.2911
ltibia 39.1764
lfoot -17.0036 -10.3586
ltoes -43.4715
139
root -27.7217 16.3123 -1.621 -170.016 2.99533 -177.801
lowerback 8.2742 0.57165 4.81189
upperback -9.52054 2.10893 -0.539713
thorax -15.0943 0.67743 -3.81827
lowerneck -14.2036 0.775834 -0.628523
upperneck 33.1187 -0.882465 -1.80099
head 13.5428 -1.75237 -0.992125
rclavicle 1.05977e-014 9.64106e-015
rhumerus -53.5861 21.1153 -87.9867
rradius 34.0328
rwrist -2.88246
rhand -25.9234 -16.2841
rfingers 7.12502
rthumb 0.619735 -46.2629
lclavicle 1.05977e-014 9.64106e-015
lhumerus -49.0743 -0.540892 70.6337
lradius 28.1786
lwrist -10.5159
lhand -20.5803 23.6643
lfingers 7.12502
lthumb 5.77959 53.5655
rfemur -7.73984 19.3144 26.0052
rtibia 2.78819
rfoot -15.8058 -16.2819
rtoes -13.8113
lfemur -25.902 -8.38134 -21.5816
ltibia 38.8846
lfoot -15.0925 -11.4539
ltoes -43.269
